<svg width="30" height="42" viewBox="0 0 30 42" fill="none" xmlns="http://www.w3.org/2000/svg" xmlns:xlink="http://www.w3.org/1999/xlink">
<path d="M15.137,9.204C12.177,9.204 9.768,11.614 9.768,14.573C9.768,17.533 12.177,19.943 15.137,19.943C18.097,19.943 20.506,17.533 20.506,14.573C20.506,11.614 18.097,9.204 15.137,9.204ZM15.137,18.409C13.022,18.409 11.302,16.688 11.302,14.573C11.302,12.459 13.022,10.738 15.137,10.738C17.251,10.738 18.972,12.459 18.972,14.573C18.972,16.688 17.251,18.409 15.137,18.409Z" fill="#FFFFFF"/>
<path d="M25.402,4.308C22.624,1.53 18.93,0 15.001,0C11.072,0 7.379,1.53 4.601,4.308C-0.541,9.449 -1.18,19.121 3.217,24.981L15.001,42L26.768,25.005C31.183,19.121 30.544,9.449 25.402,4.308ZM25.524,24.108L15.001,39.305L4.462,24.085C0.474,18.768 1.045,10.033 5.686,5.393C8.174,2.905 11.482,1.534 15.001,1.534C18.521,1.534 21.829,2.905 24.318,5.393C28.958,10.033 29.53,18.768 25.524,24.108Z" fill="#FFFFFF"/>
</svg>
